<?xml version="1.0" encoding="UTF-8"?>
<svg width="525px" height="86px" viewBox="0 0 525 86" version="1.1" xmlns="http://www.w3.org/2000/svg" xmlns:xlink="http://www.w3.org/1999/xlink">
    <title>Group 34</title>
    <defs>
        <polygon id="path-1" points="0 0 525 0 525 84 0 84"></polygon>
    </defs>
    <g id="design" stroke="none" stroke-width="1" fill="none" fill-rule="evenodd">
        <g id="coming-soon" transform="translate(-630.000000, -330.000000)">
            <g id="Group-34" transform="translate(630.000000, 330.000000)">
                <g id="Group-3">
                    <mask id="mask-2" fill="white">
                        <use xlink:href="#path-1"></use>
                    </mask>
                    <g id="Clip-2"></g>
                    <path d="M53.2726313,10.7304259 C54.0762314,9.55188324 54.8186282,8.36416668 55.5157345,7.16788779 C56.2128408,5.96304659 56.7208287,4.9899997 57.0433705,4.24018482 L8.52501644,4.24018482 L0,46.6738359 L21.8899948,46.6738359 L24.9067086,31.0592162 L37.6468006,31.0592162 L46.8664752,20.2560106 L32.0454689,20.2560106 L25.2751528,27.6214434 L28.20863,15.0519528 L49.3513318,15.0519528 C49.6634689,15.0519528 50.1989984,14.6226134 50.9505757,13.7657695 C51.7003169,12.9174879 52.4684191,11.8997946 53.2726313,10.7304259 L53.2726313,10.7304259 Z M59.7938496,14.0556653 L75.2642237,14.0556653 C77.4289866,14.0556653 77.8751591,13.7376361 78.1934166,12.2740905 L80.293916,3.24083937 C80.3581796,2.92281022 80.421219,2.60478107 80.421219,2.41396358 C80.421219,1.71368785 79.911395,1.45987612 78.1291531,1.45987612 L63.295294,1.45987612 C61.130531,1.45987612 60.6855826,1.77790527 60.3673251,3.24083937 L57.6290866,12.2740905 C57.5660472,12.5921196 57.5023957,12.9101488 57.5023957,13.037972 C57.5023957,13.801242 58.0116077,14.0556653 59.7938496,14.0556653 L59.7938496,14.0556653 Z M117.107127,22.0467593 L113.400039,4.51662554 L91.3864136,4.59246326 L71.1782871,46.2157516 L77.4926381,16.7277218 C74.4373662,17.2365684 71.9543458,17.3637801 66.9246534,17.3637801 C62.1501791,17.3637801 59.7938496,17.2365684 56.8658807,16.7277218 L50.4352433,46.7557896 L70.9163368,46.7557896 L70.9157247,46.7557896 L70.9818243,46.7557896 L71.0626128,46.7557896 L71.0626128,46.7557896 L91.7089553,46.6848446 L100.843557,27.7841275 L106.662773,46.6334707 L125.98039,46.5674185 L147.943217,4.23773844 L126.754613,4.23773844 L117.107127,22.0467593 Z M525,42.0000306 L525,42.0000306 L500.734091,84.0000612 L500.734091,84.0000612 L452.20166,84.0000612 L476.467569,42.0000306 L452.20166,0 L500.734091,0 L500.734091,0 L525,42.0000306 Z" id="Fill-1" fill="#BF8F63" mask="url(#mask-2)"></path>
                </g>
                <polygon id="Fill-4" fill="#FFFFFF" points="173 63.4091526 182.033909 63.4091526 182.033909 82 186.939262 82 186.939262 63.4091526 196 63.4091526 196 62 173 62"></polygon>
                <path d="M19.8275862,71.5758474 C18.3524673,70.7003766 16.2337396,70.2756066 12.6935791,69.8508366 C9.42122473,69.4797802 7.81189061,69.1618201 6.84678954,68.6043094 C6.06896552,68.1270606 5.80053508,67.4639748 5.80053508,66.5354078 C5.80053508,64.2547385 7.89241974,63.4589121 12.7204221,63.4589121 C15.2948573,63.4589121 17.8162307,63.6706798 20.2832937,63.9892573 L20.2832937,62.716182 C17.7357015,62.291412 14.8928359,62 12.0231272,62 C5.55894768,62 1.32211653,63.2730753 1.32211653,67.8881274 C1.32211653,69.7187133 1.96572533,70.9652405 3.30662901,71.8672594 C4.6475327,72.7155646 6.68573127,73.219979 10.1453627,73.6182009 C13.417717,74.0423535 15.1881094,74.3072174 16.2605826,74.864728 C17.1726219,75.368525 17.5209572,76.0581589 17.5209572,77.0663703 C17.5209572,79.6656171 15.1075803,80.5145397 9.79702735,80.5145397 C6.71257432,80.5145397 3.81602259,80.3021547 1,79.9841946 L1,81.2572699 C3.86970868,81.6554918 7.06153389,82 10.4943222,82 C17.253151,82 22,80.5410879 22,75.6871025 C22,73.7768723 21.3563912,72.4772489 19.8275862,71.5758474" id="Fill-6" fill="#FFFFFF"></path>
                <path d="M164.868346,29.7224064 L172.256969,16.1199735 L173.772817,29.7224064 L164.868346,29.7224064 Z M174.214156,47 L196,47 L191.706209,4 L157.417195,4 L135,47 L157.10152,47 L159.753799,41.4556513 L173.835345,41.4556513 L174.214156,47 Z" id="Fill-8" fill="#FFFFFF"></path>
                <polygon id="Fill-10" fill="#FFFFFF" points="120 82 124.981727 82 124.981727 72.7042609 137.611224 72.7042609 137.611224 71.267985 124.981727 71.267985 124.981727 63.4091526 139 63.4091526 139 62 120 62"></polygon>
                <path d="M70.4866767,80.5789103 C65.215626,80.5789103 63.0851449,78.2892408 63.0851449,71.9733546 C63.0851449,65.6838075 65.215626,63.3677988 70.4866767,63.3677988 C75.7583472,63.3677988 77.9415016,65.6317418 77.9415016,71.9733546 C77.9415016,78.2892408 75.7583472,80.5789103 70.4866767,80.5789103 M70.4866767,62 C62.2064299,62 58,65.8945208 58,71.9996937 C58,78.1054792 62.2064299,82 70.4866767,82 C78.7935701,82 83,78.1054792 83,71.9996937 C83,65.8945208 78.7935701,62 70.4866767,62" id="Fill-12" fill="#FFFFFF"></path>
                <polygon id="Fill-14" fill="#FFFFFF" points="227.770167 47 233.294663 21.0842293 246.359494 21.0842293 250 4 201.640506 4 198 21.0842293 211.000469 21.0842293 205.475348 47"></polygon>
                <polygon id="Fill-16" fill="#FFFFFF" points="245 47 266.923847 47 276 4 254.076153 4"></polygon>
                <polygon id="Fill-18" fill="#FFFFFF" points="413.856544 72.4336582 426.461446 72.4336582 426.461446 70.9967515 413.856544 70.9967515 413.856544 63.4091526 427.814706 63.4091526 427.814706 62 409 62 409 82 428 82 428 80.5637241 413.856544 80.5637241"></polygon>
                <polygon id="Fill-20" fill="#FFFFFF" points="422.153082 4 400.120972 4 391 47 431.78719 47 435 31.7855784 416.243067 31.7855784"></polygon>
                <polygon id="Fill-22" fill-opacity="0.29" fill="#00114B" points="476.303026 43 470 53.9746334 501 86"></polygon>
                <path d="M355.868346,29.7224064 L363.256969,16.1199735 L364.772817,29.7224064 L355.868346,29.7224064 Z M348.417195,4 L326,47 L348.10152,47 L350.752585,41.4556513 L364.835345,41.4556513 L365.214156,47 L387,47 L382.705602,4 L348.417195,4 Z" id="Fill-24" fill="#FFFFFF"></path>
                <path d="M296.131613,74.8457438 L301.158487,64.4663324 L306.2901,74.8457438 L296.131613,74.8457438 Z M300.816094,62 L291,82 L292.658066,82 L295.421101,76.281389 L307.000613,76.281389 L309.842661,82 L315,82 L305.000153,62 L300.816094,62 Z" id="Fill-26" fill="#FFFFFF"></path>
                <path d="M355.69614,72.6777683 L355.69614,63.4091526 L361.420789,63.4091526 C365.325439,63.4091526 366.907807,64.5477024 366.907807,68.0434604 C366.907807,71.5392185 365.351842,72.6777683 361.473596,72.6777683 L355.69614,72.6777683 Z M371.735965,68.0434604 C371.735965,63.6261393 367.857719,62 361.737018,62 L351,62 L351,82 L355.69614,82 L355.69614,74.1411676 L360.497281,74.1411676 L366.512368,82 L372,82 L365.720877,73.8156874 C369.519912,73.1117419 371.735965,71.2143691 371.735965,68.0434604 L371.735965,68.0434604 Z" id="Fill-28" fill="#FFFFFF"></path>
                <polygon id="Fill-30" fill="#FFFFFF" points="253.202245 78.2058851 246.872506 62 243.538799 62 237.183598 78.2601318 231.974795 62 227 62 233.458868 82 237.340008 82 243.538799 66.1460876 249.763659 82 253.567201 82 260 62 258.385586 62"></polygon>
                <path d="M310.315543,33.3020956 C302.792835,33.3020956 299.695142,32.0067778 299.695142,28.7700394 C299.695142,26.6331697 300.580632,24.3668303 301.970552,23.0074002 C303.866726,21.1294695 307.028233,20.2879176 312.590952,20.2879176 C317.332604,20.2879176 322.200667,20.8057957 328.458651,21.9069092 L332,5.00740024 C323.464784,3.64734767 316.194899,3 309.683485,3 C298.493624,3 290.528476,5.65474791 285.028962,11.0937133 C280.034487,16.14427 277,23.4605436 277,30.3884086 C277,35.6979044 278.770371,40.100491 281.930661,42.9494433 C286.039647,46.6399474 291.98221,48 303.678324,48 C311.07462,48 315.246812,47.6763262 322.643716,46.5104779 L325.740801,31.5542569 C320.367091,32.7842174 315.562841,33.3020956 310.315543,33.3020956" id="Fill-32" fill="#FFFFFF"></path>
            </g>
        </g>
    </g>
</svg>